<?xml version="1.0" encoding="utf-8"?>
<svg viewBox="0 0 500 500" xmlns="http://www.w3.org/2000/svg">
  <polyline style="fill:#000000; stroke:#000000" points="0 80 500 80 500 240 460 240 460 120 40 120 40 380 160 380 160 420 0 420"/>
  <polyline style="fill:#000000; stroke:#000000" points="200 280 500 280 500 420 200 420 240 380 460 380 460 320 240 320 240 380 200 420"/>
  <polyline style="fill: rgb(0, 0, 0); stroke: rgb(0, 0, 0); transform-origin: 120px 200px;" points="60 160 80 140 140 200 180 160 180 260 80 260 120 220" transform="matrix(-1, 0, 0, -1, 0, 0)"/>
</svg>